# xmcd CD database file
# Copyright (C) 1993-1998 Ti Kan
#
# Track frame offsets:
# 150
# 22007
# 36980
# 57080
# 77970
# 95382
# 112187
# 127945
# 148575
# 162925
# 177687
# 199002
# 221877
# 240870
# 265880
# 280455
# 300855
#
# Disc length: 4217 seconds
# Revision: 1
# Processed by: cddbd v1.4b41PL1 Copyright (c) Steve Scherf et al.
# Submitted via: CDSpectrumPro v3.3.331
#
DISCID=f5107711
DTITLE=Various Artist - Proton Productions Compilation
DYEAR=1900
DGENRE=
TTITLE0=The Dashboard Survivors - Consumation
TTITLE1=Bad Examples - Ashes of my heart
TTITLE2=Human Radio - Have a beautiful day
TTITLE3=Holiday Ranch - Cry me a river
TTITLE4=Sam Iam - Break the Mold
TTITLE5=Mile One - Missing you
TTITLE6=Mango Jam - Dancin' with the Spirits
TTITLE7=Tony Brown and the Landing Crew - Lets Get Closer
TTITLE8=Gooneybirds - Other Side of Love
TTITLE9=Farm Accident - Daylight
TTITLE10=Les Exodus - Recall
TTITLE11=Cathy Braaten - Die on the Vine
TTITLE12=Paul Metsa - Slow Justice
TTITLE13=Minneapolis Gospel Sound - He Cares
TTITLE14=The Blenders - Jump Up
TTITLE15=Preston Reed - Sunrise Drive
TTITLE16=Billy McLaughlin - The Good Wife
EXTD=
EXTT0=
EXTT1=
EXTT2=
EXTT3=
EXTT4=
EXTT5=
EXTT6=
EXTT7=
EXTT8=
EXTT9=
EXTT10=
EXTT11=
EXTT12=
EXTT13=
EXTT14=
EXTT15=
EXTT16=
PLAYORDER=
